<svg width="50" height="50" viewBox="0 0 50 50" fill="none" xmlns="http://www.w3.org/2000/svg">
<g clip-path="url(#clip0)">
<path fill-rule="evenodd" clip-rule="evenodd" d="M45.5379 14.3757L43.8986 15.9829C40.3467 12.9477 35.7924 11.2501 31.057 11.2501C27.8689 11.2501 24.6824 12.0537 21.9501 13.4818L28.8712 6.69652C29.4177 7.05311 30.0546 7.23224 30.6933 7.23224C31.6035 7.23224 32.5154 6.87565 33.2428 6.16079C34.6995 4.73276 34.6995 2.49947 33.2428 1.07144C32.5137 0.356589 31.6035 0 30.6933 0C29.7831 0 28.8712 0.356589 28.1438 1.07144C26.9604 2.32202 26.7777 4.10664 27.5973 5.44594L18.8542 14.0175L17.2148 12.4103L12.7527 16.7848L14.3921 18.392L5.46619 27.1427C4.91974 26.7861 4.28279 26.6069 3.64413 26.6069C2.73395 26.6069 1.82206 26.9635 1.09461 27.6784C-0.36202 29.1064 -0.36202 31.3397 1.09461 32.7677C1.82377 33.3922 2.73395 33.7504 3.64413 33.7504C4.5543 33.7504 5.46619 33.3938 6.19365 32.679C7.37705 31.5188 7.55977 29.7325 6.7401 28.3045L13.6612 21.5193C10.0188 28.3949 10.8385 36.9664 16.2107 43.0368L14.5714 44.7327L19.1257 49.1072L23.5878 44.7327L19.1257 40.3582L17.5768 41.8767C12.2951 35.8046 12.0219 27.0556 16.4839 20.6269L17.2131 21.3418L21.7674 16.9673L20.9477 16.2524C23.8627 14.1983 27.4146 13.1268 31.057 13.1268C35.3381 13.1268 39.3443 14.6453 42.623 17.3239L40.9836 18.8423L45.5379 23.2168L50 18.8423L45.5379 14.3774V14.3757ZM21.0383 44.7327L19.1257 46.6077L17.2131 44.7327L19.1257 42.8577L21.0383 44.7327V44.7327ZM29.4177 2.41097C29.7815 2.05438 30.2374 1.87524 30.6933 1.87524C31.1493 1.87524 31.6035 2.05438 31.969 2.41097C32.6981 3.12582 32.6981 4.19726 31.969 4.91044C31.6052 5.26703 31.1493 5.44616 30.6933 5.44616C30.2374 5.44616 29.7832 5.26703 29.4177 4.91044C28.6886 4.28599 28.6886 3.12414 29.4177 2.41097V2.41097ZM4.91799 31.4285C4.55426 31.7851 4.09832 31.9642 3.64238 31.9642C3.18643 31.9642 2.7322 31.7851 2.36676 31.4285C2.00303 31.1606 1.82031 30.7136 1.82031 30.1779C1.82031 29.7309 2.00303 29.2856 2.36676 28.9273C2.73049 28.5691 3.18643 28.3916 3.64238 28.3916C4.09832 28.3916 4.55255 28.5707 4.91799 28.9273C5.64716 29.6422 5.64716 30.8023 4.91799 31.4268V31.4285ZM17.1227 18.8389L15.2101 16.9639L17.1227 15.0889L19.0352 16.9639L17.1227 18.8389V18.8389ZM45.4973 21.1357L43.5847 19.2225L45.4973 17.3093L47.4099 19.2225L45.4973 21.1357V21.1357Z" fill="#333333"/>
</g>
<defs>
<clipPath id="clip0">
<rect width="50" height="50" fill="white"/>
</clipPath>
</defs>
</svg>
